<?xml version="1.0" encoding="UTF-8"?>
<svg version="1.1" xmlns="http://www.w3.org/2000/svg" width="512" height="512">
<path d="M0 0 C168.96 0 337.92 0 512 0 C512 168.96 512 337.92 512 512 C343.04 512 174.08 512 0 512 C0 343.04 0 174.08 0 0 Z " fill="#FEFEFE" transform="translate(0,0)"/>
<path d="M0 0 C4.89152956 2.00009209 9.25719615 4.69571673 13.765625 7.4375 C23.5467941 13.35539669 33.50202002 18.92557687 43.515625 24.4375 C43.74407331 31.87504946 43.90153008 39.31169332 44.01000977 46.75195312 C44.05523405 49.2819194 44.11662623 51.81165092 44.19458008 54.34082031 C44.3039392 57.98040626 44.35483136 61.61688197 44.39453125 65.2578125 C44.44098282 66.38615509 44.48743439 67.51449768 44.53529358 68.67703247 C44.54022174 76.36635665 44.54022174 76.36635665 41.60043335 79.43969727 C39.29723437 80.99805946 37.02321138 82.24143866 34.515625 83.4375 C33.10509439 84.23728891 31.69811333 85.04341542 30.296875 85.859375 C28.87193372 86.63934286 27.44478687 87.41529287 26.015625 88.1875 C21.18738652 90.81044781 16.41008779 93.46757515 11.74609375 96.375 C10.98296875 96.84583008 10.21984375 97.31666016 9.43359375 97.80175781 C7.97494873 98.70798254 6.52519413 99.62871792 5.0859375 100.56542969 C0.21759632 103.56884369 0.21759632 103.56884369 -2.96875 102.97265625 C-3.79890625 102.46605469 -4.6290625 101.95945312 -5.484375 101.4375 C-6.7003308 100.79275099 -7.91795156 100.15113751 -9.13671875 99.51171875 C-10.56733003 98.72015541 -11.99557833 97.92431157 -13.421875 97.125 C-14.18878662 96.69711182 -14.95569824 96.26922363 -15.74584961 95.82836914 C-22.39562679 92.0948702 -28.97883477 88.25013837 -35.546875 84.375 C-36.51681396 83.80289795 -37.48675293 83.2307959 -38.48608398 82.64135742 C-45.35506555 78.56680945 -45.35506555 78.56680945 -46.484375 77.4375 C-46.57784415 75.78011557 -46.60182477 74.11875356 -46.59790039 72.45874023 C-46.59782486 71.39771591 -46.59774933 70.33669159 -46.59767151 69.24351501 C-46.59251022 68.089366 -46.58734894 66.93521698 -46.58203125 65.74609375 C-46.5806163 64.57111832 -46.57920135 63.39614288 -46.57774353 62.18556213 C-46.57212492 58.41534936 -46.55956926 54.64519496 -46.546875 50.875 C-46.5418624 48.32617273 -46.53729908 45.77734453 -46.53320312 43.22851562 C-46.52214944 36.96482367 -46.50539321 30.70116601 -46.484375 24.4375 C-45.33582031 23.80336182 -44.18726563 23.16922363 -43.00390625 22.51586914 C-33.76683337 17.40622334 -24.58296799 12.22816433 -15.484375 6.875 C-13.42217452 5.66485403 -11.35969 4.45519192 -9.296875 3.24609375 C-8.41644531 2.72845459 -7.53601563 2.21081543 -6.62890625 1.67749023 C-2.67877695 -0.60651554 -2.67877695 -0.60651554 0 0 Z " fill="#F89A20" transform="translate(257.484375,169.5625)"/>
<path d="M0 0 C3.76465046 1.50586019 6.962399 3.01365129 10.44921875 5.00390625 C11.46177734 5.57947266 12.47433594 6.15503906 13.51757812 6.74804688 C15.08668945 7.64620117 15.08668945 7.64620117 16.6875 8.5625 C18.77454439 9.75164473 20.86177451 10.94046356 22.94921875 12.12890625 C23.87049561 12.65556885 24.79177246 13.18223145 25.7409668 13.72485352 C27.14262622 14.51604201 28.56038106 15.28019053 30 16 C30.22844831 23.43754946 30.38590508 30.87419332 30.49438477 38.31445312 C30.53960905 40.8444194 30.60100123 43.37415092 30.67895508 45.90332031 C30.7883142 49.54290626 30.83920636 53.17938197 30.87890625 56.8203125 C30.92535782 57.94865509 30.97180939 59.07699768 31.01966858 60.23953247 C31.02460981 67.94923799 31.02460981 67.94923799 28.03317261 71.01702881 C25.7479554 72.54843461 23.46799632 73.79238022 21 75 C19.63875 75.99 19.63875 75.99 18.25 77 C16 78 16 78 13.74536133 77.27978516 C10.66629807 75.84444059 7.76154926 74.2308513 4.82421875 72.5234375 C4.25419632 72.19332672 3.68417389 71.86321594 3.09687805 71.52310181 C1.29191648 70.47685993 -0.51031402 69.42601425 -2.3125 68.375 C-3.54213964 67.66115152 -4.77195562 66.94760669 -6.00195312 66.234375 C-9.00334992 64.49309126 -12.00231667 62.74767064 -15 61 C-12.51753794 58.42501267 -10.01815979 56.65000694 -6.9375 54.8125 C-6.05964844 54.28269531 -5.18179687 53.75289062 -4.27734375 53.20703125 C-2 52 -2 52 0 52 C0 34.84 0 17.68 0 0 Z " fill="#2096C5" transform="translate(271,178)"/>
<path d="M0 0 C0 5.61 0 11.22 0 17 C2.475 17.99 2.475 17.99 5 19 C6.75455827 19.94865214 8.49077186 20.93173018 10.2109375 21.94140625 C11.20222656 22.52116211 12.19351563 23.10091797 13.21484375 23.69824219 C14.25769531 24.31344727 15.30054688 24.92865234 16.375 25.5625 C17.44105469 26.18930664 18.50710938 26.81611328 19.60546875 27.46191406 C21.74281519 28.7198988 23.87922432 29.97947754 26.01464844 31.24072266 C28.64208631 32.78908031 31.27614009 34.32507524 33.9140625 35.85546875 C35.27629872 36.65320704 36.63830011 37.45134655 38 38.25 C38.62181152 38.60779541 39.24362305 38.96559082 39.88427734 39.33422852 C41.29068151 40.1671455 42.65206226 41.07545296 44 42 C44 42.66 44 43.32 44 44 C40.53339613 45.96116191 37.06450715 47.918213 33.59350586 49.87158203 C32.41449438 50.53583661 31.23609899 51.20118601 30.05834961 51.86767578 C28.35955935 52.82876727 26.65831789 53.78552197 24.95703125 54.7421875 C23.42526245 55.60626221 23.42526245 55.60626221 21.86254883 56.48779297 C20.91790771 56.98682129 19.9732666 57.48584961 19 58 C17.75077759 58.6803833 17.75077759 58.6803833 16.47631836 59.37451172 C14 60 14 60 11.31542969 59.00878906 C10.36055664 58.43354492 9.40568359 57.85830078 8.421875 57.265625 C7.3505835 56.63285645 6.27929199 56.00008789 5.17553711 55.34814453 C4.03345669 54.64914637 2.89161529 53.94975755 1.75 53.25 C0.58377871 52.55282399 -0.58346443 51.85735455 -1.75170898 51.16357422 C-4.08275166 49.77601267 -6.40776969 48.37915151 -8.72802734 46.97363281 C-13.14511732 44.30927262 -17.60396141 41.71909458 -22.0625 39.125 C-28.82930033 35.17069967 -28.82930033 35.17069967 -30 34 C-30.08631874 32.65732587 -30.10706473 31.31025678 -30.09765625 29.96484375 C-30.09443359 29.15595703 -30.09121094 28.34707031 -30.08789062 27.51367188 C-30.07951172 26.66353516 -30.07113281 25.81339844 -30.0625 24.9375 C-30.05798828 24.08349609 -30.05347656 23.22949219 -30.04882812 22.34960938 C-30.03700373 20.23304337 -30.01906769 18.11651315 -30 16 C-26.05212955 13.71586953 -22.10108823 11.43736483 -18.14697266 9.1640625 C-16.80167936 8.38956861 -15.45727296 7.6135321 -14.11376953 6.8359375 C-12.18491798 5.71990827 -10.25296768 4.60942606 -8.3203125 3.5 C-7.71816925 3.15001953 -7.116026 2.80003906 -6.49563599 2.43945312 C-2.22774341 0 -2.22774341 0 0 0 Z " fill="#B91F7A" transform="translate(241,213)"/>
<path d="M0 0 C2.16922526 1.54806009 4.0373173 3.18092823 6 5 C2.46800731 11.22303473 2.46800731 11.22303473 0 13 C-2.29383363 12.7780161 -3.80023169 12.1144642 -5.79296875 10.97265625 C-10.00457938 9.1165659 -14.49933004 9.49049019 -19 10 C-23.8439909 12.11374148 -26.21366798 14.99980409 -28.3046875 19.7265625 C-30.08353655 25.54279927 -29.79684985 30.94678313 -27.1875 36.4375 C-25.09310509 40.28123625 -23.21897334 42.59367555 -19 44 C-17.19127624 44.14359334 -15.37667423 44.22046121 -13.5625 44.25 C-12.14130859 44.28867187 -12.14130859 44.28867187 -10.69140625 44.328125 C-7.58124012 43.94894655 -6.38158494 42.94950473 -4 41 C-0.55122887 41.08621928 0.72436215 41.75416083 3.3125 44.0625 C3.869375 44.701875 4.42625 45.34125 5 46 C3.49687867 49.82612703 1.37198449 51.70091967 -2 54 C-9.52389818 57.01604539 -18.14236909 57.38146911 -25.953125 55.16015625 C-33.26861133 51.82779514 -38.8868722 46.43696002 -41.9375 38.9375 C-44.19168326 30.74304765 -44.54631835 21.30124099 -40.9375 13.5 C-36.71450079 6.39875552 -31.75261621 1.45611174 -23.8828125 -1.34765625 C-16.22249875 -3.08108768 -7.27788868 -3.1840763 0 0 Z " fill="#363636" transform="translate(165,287)"/>
<path d="M0 0 C3.96 0 7.92 0 12 0 C12.33 6.6 12.66 13.2 13 20 C14.65 19.01 16.3 18.02 18 17 C22.62713594 16.10676158 26.16898797 16.58449398 30.375 18.6875 C34.18964087 22.04801696 35.85416129 24.45975499 36.34057617 29.59692383 C36.34010599 30.96705146 36.32344109 32.33724244 36.29296875 33.70703125 C36.28872391 34.43242599 36.28447906 35.15782074 36.28010559 35.90519714 C36.26339543 38.20801891 36.2257596 40.50994553 36.1875 42.8125 C36.17244316 44.3795446 36.1587565 45.946603 36.14648438 47.51367188 C36.11351731 51.34278957 36.06178992 55.17124334 36 59 C32.04 59 28.08 59 24 59 C23.98018066 58.10168457 23.96036133 57.20336914 23.93994141 56.27783203 C23.86190739 52.94909922 23.77521886 49.62082744 23.68261719 46.29248047 C23.64430326 44.8511626 23.60945457 43.40974832 23.578125 41.96826172 C23.53252554 39.89776114 23.47452556 37.82792567 23.4140625 35.7578125 C23.36693115 33.88826904 23.36693115 33.88826904 23.31884766 31.98095703 C23.30317691 28.88458224 23.30317691 28.88458224 21 27 C17.26703674 26.61713197 16.22373677 26.85084215 13 29 C12.48779459 32.10213725 12.48779459 32.10213725 12.48828125 35.7578125 C12.47033005 36.42086395 12.45237885 37.08391541 12.43388367 37.76705933 C12.37967076 39.88630803 12.34585229 42.00533025 12.3125 44.125 C12.27933633 45.56122952 12.24484755 46.9974291 12.20898438 48.43359375 C12.12394036 51.95551129 12.05718127 55.47750759 12 59 C8.04 59 4.08 59 0 59 C0 39.53 0 20.06 0 0 Z " fill="#393939" transform="translate(177,284)"/>
<path d="M0 0 C4.22232993 2.58719797 6.24553244 5.78962298 7.625 10.5 C8.0974415 15.6786014 8.00418424 20.81069351 7.875 26 C7.85490166 27.40882874 7.83665678 28.81768521 7.8203125 30.2265625 C7.77339203 33.65175664 7.70774777 37.07551524 7.625 40.5 C4.985 40.5 2.345 40.5 -0.375 40.5 C-1.035 39.18 -1.695 37.86 -2.375 36.5 C-3.468125 37.16 -4.56125 37.82 -5.6875 38.5 C-10.82665914 41.04675915 -15.73832589 41.52250643 -21.375 40.5 C-24.54146368 38.82400067 -26.74913808 36.75172384 -28.375 33.5 C-28.86884131 29.22004198 -28.70485224 27.06074882 -26.5 23.3125 C-22.37455555 18.96563339 -16.62129804 16.79685911 -10.7265625 16.2578125 C-8.60784698 16.25112885 -6.48933036 16.36359159 -4.375 16.5 C-5.035 14.19 -5.695 11.88 -6.375 9.5 C-10.9409385 8.6219349 -13.32505533 8.2790626 -17.375 10.5 C-20.625 10.625 -20.625 10.625 -23.375 10.5 C-24.365 8.52 -25.355 6.54 -26.375 4.5 C-17.79294427 -0.54826807 -9.89680114 -4.18070478 0 0 Z " fill="#383838" transform="translate(248.375,302.5)"/>
<path d="M0 0 C2.08153935 -0.13536022 4.16561206 -0.23215465 6.25 -0.3125 C7.41015625 -0.37050781 8.5703125 -0.42851562 9.765625 -0.48828125 C13 0 13 0 15.28125 2.28125 C17.30403923 5.48093478 19.17809803 8.68153569 21 12 C21.49371094 11.21753906 21.98742187 10.43507813 22.49609375 9.62890625 C23.45708984 8.11103516 23.45708984 8.11103516 24.4375 6.5625 C25.07558594 5.55316406 25.71367187 4.54382813 26.37109375 3.50390625 C28 1 28 1 29 0 C31.01964199 -0.07244053 33.04167124 -0.08377188 35.0625 -0.0625 C36.71958984 -0.04896484 36.71958984 -0.04896484 38.41015625 -0.03515625 C39.26480469 -0.02355469 40.11945313 -0.01195312 41 0 C39.29186525 5.08644571 36.20116515 9.0193151 32.92578125 13.18359375 C31.51184618 15.02263495 31.51184618 15.02263495 30 18 C30.29009918 20.54950231 30.29009918 20.54950231 32 23 C32.36931641 23.61214355 32.73863281 24.22428711 33.11914062 24.85498047 C34.8791187 27.72820588 36.71376479 30.55138823 38.54296875 33.38085938 C38.98511719 34.07373047 39.42726563 34.76660156 39.8828125 35.48046875 C40.28902832 36.10848389 40.69524414 36.73649902 41.11376953 37.38354492 C42 39 42 39 42 41 C37.55197285 41.53455519 33.42679973 41.78429627 29 41 C26.05712245 38.42430717 24.57632295 35.53940172 23 32 C21.69614563 28.8480089 21.69614563 28.8480089 19 27 C18.690625 28.2375 18.690625 28.2375 18.375 29.5 C16.59771281 34.02400376 14.94624249 37.99547446 11 41 C6.91545909 41.67728357 3.10003595 41.47767409 -1 41 C0.30384608 38.28468522 1.73904848 35.78446172 3.41796875 33.28515625 C3.86720703 32.59873047 4.31644531 31.91230469 4.77929688 31.20507812 C5.71986404 29.77400714 6.67046857 28.34948415 7.63085938 26.93164062 C10.2275634 23.00097919 10.2275634 23.00097919 11.1171875 18.48046875 C9.45368915 14.7870371 7.25669564 11.56131371 4.9375 8.25 C0 1.09635061 0 1.09635061 0 0 Z " fill="#393939" transform="translate(348,302)"/>
<path d="M0 0 C2.05078125 0.03255208 4.1015625 0.06510417 6.15234375 0.09765625 C6.15234375 4.05765625 6.15234375 8.01765625 6.15234375 12.09765625 C9.45234375 12.09765625 12.75234375 12.09765625 16.15234375 12.09765625 C16.15234375 14.73765625 16.15234375 17.37765625 16.15234375 20.09765625 C12.85234375 20.09765625 9.55234375 20.09765625 6.15234375 20.09765625 C6.48234375 27.35765625 6.81234375 34.61765625 7.15234375 42.09765625 C9.46234375 42.75765625 11.77234375 43.41765625 14.15234375 44.09765625 C16.08984375 47.22265625 16.08984375 47.22265625 17.15234375 50.09765625 C11.85260677 52.80390492 7.12525383 54.27923011 1.15234375 53.09765625 C-2.41502308 51.15385094 -4.54073845 49.01840964 -5.84765625 45.09765625 C-5.93032111 43.17858708 -5.95506288 41.25676151 -5.9453125 39.3359375 C-5.94208984 38.21767578 -5.93886719 37.09941406 -5.93554688 35.94726562 C-5.92716797 34.78001953 -5.91878906 33.61277344 -5.91015625 32.41015625 C-5.90564453 31.23130859 -5.90113281 30.05246094 -5.89648438 28.83789062 C-5.88468898 25.92442836 -5.86822895 23.01106762 -5.84765625 20.09765625 C-6.65203125 20.11828125 -7.45640625 20.13890625 -8.28515625 20.16015625 C-10.84765625 20.09765625 -10.84765625 20.09765625 -11.84765625 19.09765625 C-11.88846408 17.09807261 -11.89019981 15.09720371 -11.84765625 13.09765625 C-8.38265625 12.60265625 -8.38265625 12.60265625 -4.84765625 12.09765625 C-4.64849609 10.92396484 -4.64849609 10.92396484 -4.4453125 9.7265625 C-4.26871094 8.71464844 -4.09210938 7.70273437 -3.91015625 6.66015625 C-3.73613281 5.65082031 -3.56210937 4.64148438 -3.3828125 3.6015625 C-2.64291125 0.13968876 -2.64291125 0.13968876 0 0 Z " fill="#353535" transform="translate(272.84765625,289.90234375)"/>
<path d="M0 0 C1.02738281 0.32871094 2.05476563 0.65742188 3.11328125 0.99609375 C6.81636809 2.66451749 9.2369047 3.99043142 12 7 C13.5272629 12.85246051 12.67780707 19.0691881 12 25 C9.80488686 26.401264 7.59819045 27.76961427 5.375 29.125 C4.75753906 29.52332031 4.14007813 29.92164063 3.50390625 30.33203125 C0.29420564 32.25785161 -1.39632669 33.12224384 -5.125 32.3671875 C-6.07375 31.91601562 -7.0225 31.46484375 -8 31 C-9.37285156 30.566875 -9.37285156 30.566875 -10.7734375 30.125 C-13.94700901 28.75264475 -15.74402829 27.65257922 -18 25 C-19.96140477 19.28640603 -20.09064433 12.68639031 -18 7 C-13.88406002 1.59478804 -6.65158948 -2.23122938 0 0 Z " fill="#FEFDFD" transform="translate(259,205)"/>
<path d="M0 0 C0.66 0.33 1.32 0.66 2 1 C1.85957123 2.64630328 1.71250671 4.29204179 1.5625 5.9375 C1.48128906 6.85402344 1.40007812 7.77054687 1.31640625 8.71484375 C1 11 1 11 0 12 C-2.25543624 12.24261665 -4.50945523 12.38332133 -6.7734375 12.5234375 C-9.54304779 13.11623128 -10.29838692 13.74718955 -12 16 C-12.5060736 18.8028729 -12.5060736 18.8028729 -12.51171875 21.98046875 C-12.54716797 23.14384766 -12.58261719 24.30722656 -12.61914062 25.50585938 C-12.65297852 27.32827148 -12.65297852 27.32827148 -12.6875 29.1875 C-12.72166016 30.41404297 -12.75582031 31.64058594 -12.79101562 32.90429688 C-12.87358776 35.93587377 -12.9384673 38.96792309 -13 42 C-16.96 42 -20.92 42 -25 42 C-25 28.47 -25 14.94 -25 1 C-21.7 1 -18.4 1 -15 1 C-14.34 2.65 -13.68 4.3 -13 6 C-12.56429688 5.566875 -12.12859375 5.13375 -11.6796875 4.6875 C-7.82113141 1.0794995 -5.54766059 -0.90310754 0 0 Z " fill="#383838" transform="translate(321,301)"/>
<path d="M0 0 C3.96 0 7.92 0 12 0 C12 13.53 12 27.06 12 41 C8.04 41 4.08 41 0 41 C0 27.47 0 13.94 0 0 Z " fill="#353535" transform="translate(329,302)"/>
<path d="M0 0 C2 1.0625 2 1.0625 3 3 C3.49891602 6.92005446 3.55253414 9.11594538 1.4375 12.5 C-1 14 -1 14 -4.5625 13.9375 C-8 13 -8 13 -9.9375 11.875 C-11.64550843 8.86086748 -11.36204814 6.37911601 -11 3 C-8.82986072 -1.20464485 -4.15736573 -0.61494368 0 0 Z " fill="#383838" transform="translate(339,284)"/>
<path d="M0 0 C0.3125 2.8125 0.3125 2.8125 0 6 C-2.78262194 8.45525465 -4.55289098 8.965607 -8.25 9.25 C-11 9 -11 9 -12 8 C-12.375 5.625 -12.375 5.625 -12 3 C-8.21669117 -0.32472595 -4.88424492 -0.28730852 0 0 Z " fill="#F4F4F4" transform="translate(244,326)"/>
</svg>
